<?xml version="1.0" encoding="UTF-8" standalone="no"?>
<svg
   xmlns:dc="http://purl.org/dc/elements/1.1/"
   xmlns:cc="http://creativecommons.org/ns#"
   xmlns:rdf="http://www.w3.org/1999/02/22-rdf-syntax-ns#"
   xmlns:svg="http://www.w3.org/2000/svg"
   xmlns="http://www.w3.org/2000/svg"
   xmlns:sodipodi="http://sodipodi.sourceforge.net/DTD/sodipodi-0.dtd"
   xmlns:inkscape="http://www.inkscape.org/namespaces/inkscape"
   sodipodi:docname="separator.svg"
   inkscape:version="1.0 (4035a4fb49, 2020-05-01)"
   id="svg8"
   version="1.1"
   viewBox="0 0 208.22839 20.446119"
   height="20.446119mm"
   width="208.22839mm">
  <defs
     id="defs2" />
  <sodipodi:namedview
     inkscape:window-maximized="0"
     inkscape:window-y="6"
     inkscape:window-x="64"
     inkscape:window-height="977"
     inkscape:window-width="1424"
     fit-margin-bottom="0"
     fit-margin-right="0"
     fit-margin-left="0"
     fit-margin-top="0"
     showgrid="false"
     inkscape:document-rotation="0"
     inkscape:current-layer="layer1"
     inkscape:document-units="mm"
     inkscape:cy="57.774992"
     inkscape:cx="396.50606"
     inkscape:zoom="0.98994949"
     inkscape:pageshadow="2"
     inkscape:pageopacity="0.0"
     borderopacity="1.0"
     bordercolor="#666666"
     pagecolor="#ffffff"
     id="base" />
  <metadata
     id="metadata5">
    <rdf:RDF>
      <cc:Work
         rdf:about="">
        <dc:format>image/svg+xml</dc:format>
        <dc:type
           rdf:resource="http://purl.org/dc/dcmitype/StillImage" />
        <dc:title></dc:title>
      </cc:Work>
    </rdf:RDF>
  </metadata>
  <g
     transform="translate(4.2245037,-91.186473)"
     id="layer1"
     inkscape:groupmode="layer"
     inkscape:label="Layer 1">
    <g
       id="g858">
      <rect
         style="fill:#000000;fill-rule:evenodd;stroke:none;stroke-width:2;stroke-linecap:round;stroke-linejoin:round;stroke-miterlimit:4;stroke-dasharray:none;stroke-dashoffset:0;paint-order:stroke fill markers;stop-color:#000000"
         id="rect835"
         width="14.457589"
         height="14.457589"
         x="135.11125"
         y="-6.1541057"
         transform="rotate(45)" />
      <path
         style="fill:#000000;fill-rule:evenodd;stroke:none;stroke-width:2;stroke-linecap:round;stroke-linejoin:round;stroke-miterlimit:4;stroke-dasharray:none;stroke-dashoffset:0;paint-order:stroke fill markers;stop-color:#000000"
         id="path851"
         d="m 78.490121,96.501573 c -0.486489,0.05635 -0.977132,0.08421 -1.459471,0.169038 -0.861171,0.15147 -1.710457,0.36421 -2.567162,0.53919 -1.515872,0.30962 -3.038266,0.58772 -4.550507,0.91461 -3.651904,0.78942 -8.65427,2.034369 -12.273188,2.754209 -2.146665,0.42699 -4.310631,0.76188 -6.465945,1.14282 -1.552242,0.1856 -6.50902,0.87918 -8.747514,0.8908 -2.128229,0.0111 -3.682101,0.0759 -5.521553,-0.9803 -0.807196,-0.46348 -3.450018,-2.952309 -3.991533,-3.446159 -0.882343,-0.65388 -1.71002,-1.38884 -2.647029,-1.961641 -3.118189,-1.906186 -6.69296,-2.914428 -10.342379,-3.034488 -4.087973,-0.13449 -4.590665,0.115769 -8.213964,0.750821 -1.101916,0.323967 -2.2164396,0.607785 -3.3057479,0.971902 -1.6593865,0.554675 -4.4983855,1.721486 -6.135255,2.407836 -2.1799377,0.91405 -4.3342187,1.87789 -6.4731348,2.883199 -0.2434134,0.14336 1.7840885,3.58575 2.0275021,3.44238 v 0 c 1.77247021,-0.42862 2.49908951,-0.56937 4.3228225,-1.1812 3.8065665,-1.27703 7.4330718,-3.109849 11.3865701,-3.926179 2.637397,-0.32758 5.220965,-0.74591 7.889989,-0.44677 1.851029,0.20746 3.834152,0.77602 5.4918,1.635119 0.848463,0.43973 1.601594,1.04303 2.40239,1.56454 0.758494,0.64779 1.520669,1.29129 2.27548,1.94336 1.767396,1.52683 3.169909,2.98214 5.326803,4.01041 5.372772,2.56138 11.52075,1.8226 17.227137,1.31921 2.283037,-0.46641 4.592693,-0.81753 6.849116,-1.39921 4.11386,-1.0605 8.097543,-2.52302 11.92934,-4.35135 1.322861,-0.63119 2.568556,-1.41282 3.849039,-2.12608 2.24392,-1.249909 1.549365,-0.83144 3.201564,-1.901749 0.18274,-0.10502 -1.302433,-2.689336 -1.48517,-2.584318 z" />
      <path
         d="m 121.28927,96.501575 c 0.48649,0.05635 0.97713,0.08421 1.45947,0.169038 0.86117,0.15147 1.71046,0.36421 2.56716,0.53919 1.51588,0.30962 3.03827,0.58772 4.55051,0.91461 3.65191,0.789416 8.65427,2.034367 12.27319,2.754207 2.14666,0.42699 4.31063,0.76188 6.46594,1.14282 1.55225,0.1856 6.50902,0.87918 8.74752,0.8908 2.12823,0.0111 3.6821,0.0759 5.52155,-0.9803 0.8072,-0.46348 3.45002,-2.952311 3.99153,-3.446157 0.88235,-0.65388 1.71002,-1.38884 2.64703,-1.961641 3.11819,-1.906186 6.69296,-2.914428 10.34238,-3.034488 4.08797,-0.13449 4.59067,0.115769 8.21397,0.750821 1.10191,0.323967 2.21644,0.607785 3.30574,0.971902 1.65939,0.554675 4.49839,1.721486 6.13526,2.407836 2.17994,0.91405 4.33422,1.877886 6.47313,2.883197 0.24342,0.14336 -1.78408,3.58575 -2.0275,3.44238 v 0 c -1.77247,-0.42862 -2.49909,-0.56937 -4.32282,-1.1812 -3.80657,-1.27703 -7.43307,-3.109851 -11.38657,-3.926181 -2.6374,-0.327576 -5.22097,-0.745906 -7.88999,-0.446766 -1.85103,0.20746 -3.83415,0.776016 -5.4918,1.635117 -0.84846,0.43973 -1.60159,1.04303 -2.40239,1.56454 -0.75849,0.64779 -1.52067,1.29129 -2.27548,1.94336 -1.7674,1.52683 -3.16991,2.98214 -5.3268,4.01041 -5.37278,2.56138 -11.52075,1.8226 -17.22714,1.31921 -2.28304,-0.46641 -4.59269,-0.81753 -6.84912,-1.39921 -4.11386,-1.0605 -8.09754,-2.52302 -11.92934,-4.35135 -1.32286,-0.63119 -2.56855,-1.41282 -3.84903,-2.12608 -2.24392,-1.249911 -1.54937,-0.83144 -3.20157,-1.901751 -0.18274,-0.10502 1.30243,-2.689332 1.48517,-2.584314 z"
         id="path853"
         style="fill:#000000;fill-rule:evenodd;stroke:none;stroke-width:2;stroke-linecap:round;stroke-linejoin:round;stroke-miterlimit:4;stroke-dasharray:none;stroke-dashoffset:0;paint-order:stroke fill markers;stop-color:#000000" />
    </g>
  </g>
</svg>
