<svg xmlns="http://www.w3.org/2000/svg" width="21.669" height="15.091" viewBox="0 0 5.733 3.993" fill="rgb(64, 120, 245)">
  <path d="M55.126.655c-.035-.39-.067-.738.054-1.15.07-.238.254-.433.314-.674.07-.312-.08-.989-.27-.925-1.264.51-1.458.583-2.002.8-.023.008-.007.048 0 .071.035.12.071.262.202.315.53-.014.604-.204 1.12-.244-.245.49-.926 1.013-1.331 1.357-.238.202-.473.41-.737.575a4.59 4.59 0 0 1-.898.44c-.101.036-.208.06-.314.072-.158.018-.321.033-.476 0a.75.75 0 0 1-.288-.125.568.568 0 0 1-.189-.216c-.269-.62.148-1.63.027-2.057-.039-.105-.134-.263-.242-.233-.457.876-.285 2.433.584 2.982a.944.944 0 0 0 .27.125c.124.037.256.063.385.054 1.557-.095 2.269-1.562 3.308-2.13.273-.118.146.12.15.289.007.145.014.298.072.431a.483.483 0 0 0 .126.162c.04.034.084.094.135.08z" style="fill-opacity:1;stroke:none;stroke-width:.0711332px;stroke-linecap:butt;stroke-linejoin:miter;stroke-opacity:1" transform="translate(-49.814 2.133)"/>
</svg>